<?xml version="1.0" encoding="utf-8"?>
<svg width="900" height="900" viewBox="0 0 900 900" fill="#111111" xmlns="http://www.w3.org/2000/svg">
  <path d="M 475.649 78.665 C 476.329 78.816 476.608 79.545 475.997 80.394 C 475.386 81.243 474.525 80.12 474.525 80.12 C 474.402 79.058 474.969 78.513 475.649 78.665 Z" style="transform-box: fill-box; transform-origin: 50% 50%;" transform="matrix(-1, 0, 0, -1, -0.00007, -0.000008)"/>
  <path d="M 129.812 383.063 C 129.69 382.001 130.256 381.456 130.936 381.608 C 131.616 381.76 131.896 382.488 131.284 383.337 C 130.673 384.186 129.812 383.063 129.812 383.063 Z" style="transform-box: fill-box; transform-origin: 50% 50%;" transform="matrix(-1, 0, 0, -1, -0.000024, -0.000062)"/>
  <path d="M 678.055 241.244 C 678.735 241.396 679.015 242.124 678.403 242.973 C 677.792 243.822 676.931 242.699 676.931 242.699 C 676.809 241.638 677.375 241.092 678.055 241.244 Z" style="transform-box: fill-box; transform-origin: 50% 50%;" transform="matrix(-1, 0, 0, -1, -0.000043, 0.000034)"/>
  <path d="M 334.439 483.485 C 335.118 484.421 335.096 485.496 334.038 485.671 C 332.98 485.847 332.543 483.698 332.543 483.698 C 332.891 482.46 333.761 482.548 334.439 483.485 Z" style="transform-box: fill-box; transform-origin: 50% 50%;" transform="matrix(-1, 0, 0, -1, 0.000044, 0.000048)"/>
  <path d="M 379.633 883.917 C 380.541 885.194 378.471 886.045 378.471 886.045 C 376.874 885.798 376.379 884.713 376.952 883.74 C 377.525 882.767 378.724 882.64 379.633 883.917 Z" style="transform-box: fill-box; transform-origin: 50% 50%;" transform="matrix(-1, 0, 0, -1, -0.000011, -0.000011)"/>
  <path d="M 27.978 279.471 C 28.148 280.585 27.317 281.519 25.79 281.329 C 25.79 281.329 24.226 279.929 25.5 278.918 C 26.774 277.906 27.808 278.357 27.978 279.471 Z" style="transform-box: fill-box; transform-origin: 50% 50%;" transform="matrix(-1, 0, 0, -1, 0.000008, -0.000067)"/>
  <path d="M 150.966 106.631 C 150.966 106.631 151.314 109.588 149.749 109.34 C 148.183 109.093 147.669 107.613 148.204 106.326 C 148.738 105.039 149.924 104.925 150.966 106.631 Z" style="transform-box: fill-box; transform-origin: 50% 50%;" transform="matrix(-1, 0, 0, -1, 0.000014, 0.000008)"/>
  <path d="M 163 120.475 C 163 120.475 162.477 121.789 161.63 121.204 C 160.784 120.618 160.849 119.856 161.475 119.496 C 162.1 119.137 162.815 119.457 163 120.475 Z" style="transform-box: fill-box; transform-origin: 50% 50%;" transform="matrix(-1, 0, 0, -1, -0.000018, 0.000021)"/>
  <path d="M 204.93 338.846 C 204.93 338.846 205.318 340.316 204.27 340.354 C 203.221 340.393 202.802 339.694 203.087 338.982 C 203.372 338.27 204.149 338.086 204.93 338.846 Z" style="transform-box: fill-box; transform-origin: 50% 50%;" transform="matrix(-1, 0, 0, -1, -0.000023, 0.000045)"/>
  <path d="M 273 650.475 C 273 650.475 272.477 651.789 271.63 651.204 C 270.784 650.618 270.849 649.856 271.475 649.496 C 272.1 649.137 272.815 649.457 273 650.475 Z" style="transform-box: fill-box; transform-origin: 50% 50%;" transform="matrix(-1, 0, 0, -1, -0.000045, -0.000012)"/>
  <path d="M 279 202.058 C 279 202.058 278.25 204.016 276.968 203.118 C 275.686 202.221 275.765 201.08 276.692 200.556 C 277.62 200.032 278.697 200.528 279 202.058 Z" style="transform-box: fill-box; transform-origin: 50% 50%;" transform="matrix(-1, 0, 0, -1, -0.000032, -0.000005)"/>
  <path d="M 282 678.036 C 282 678.036 281.476 680.007 280.63 679.128 C 279.784 678.25 279.849 677.108 280.475 676.568 C 281.1 676.028 281.814 676.508 282 678.036 Z" style="transform-box: fill-box; transform-origin: 50% 50%;" transform="matrix(-1, 0, 0, -1, -0.000019, -0.000091)"/>
  <path d="M 310.824 56.353 C 309.25 56.3 308.683 55.575 309.169 54.9 C 309.655 54.224 310.833 54.112 311.938 54.927 C 311.938 54.927 312.396 56.406 310.824 56.353 Z" style="transform-box: fill-box; transform-origin: 50% 50%;" transform="matrix(-1, 0, 0, -1, 0.000044, -0.000018)"/>
  <path d="M 454.968 237.118 C 453.686 236.221 453.765 235.08 454.692 234.556 C 455.62 234.032 456.697 234.528 457 236.059 L 456.988 236.088 C 456.89 236.324 456.158 237.952 454.968 237.118 Z" style="transform-box: fill-box; transform-origin: 50% 50%;" transform="matrix(-1, 0, 0, -1, 0.000001, 0.000042)"/>
  <path d="M 579.731 820.325 C 578.984 820.162 578.71 819.43 579.385 818.541 C 579.385 818.541 580.818 817.92 580.976 818.942 C 581.135 819.963 580.48 820.488 579.731 820.325 Z" style="transform-box: fill-box; transform-origin: 50% 50%;" transform="matrix(-1, 0, 0, -1, 0.000013, -0.000105)"/>
  <path d="M 601.979 416.098 C 602.149 416.841 601.317 417.464 599.789 417.338 C 599.789 417.338 598.226 416.404 599.499 415.73 C 600.774 415.055 601.809 415.356 601.979 416.098 Z" style="transform-box: fill-box; transform-origin: 50% 50%;" transform="matrix(-1, 0, 0, -1, 0.000097, -0.000033)"/>
  <path d="M 608.678 347.596 C 609.213 348.064 609.108 348.84 608.162 349.354 C 608.162 349.354 606.721 349.301 607.048 348.311 C 607.376 347.322 608.143 347.129 608.678 347.596 Z" style="transform-box: fill-box; transform-origin: 50% 50%;" transform="matrix(-1, 0, 0, -1, -0.000028, 0.000005)"/>
  <path d="M 610.678 343.717 C 611.213 344.418 611.108 345.584 610.162 346.354 C 610.162 346.354 608.721 346.274 609.048 344.79 C 609.376 343.306 610.143 343.017 610.678 343.717 Z" style="transform-box: fill-box; transform-origin: 50% 50%;" transform="matrix(-1, 0, 0, -1, -0.000076, 0.000003)"/>
  <path d="M 653.734 363.634 C 654.223 364.131 654.056 364.9 653.084 365.354 C 653.084 365.354 651.669 365.214 652.072 364.247 C 652.474 363.281 653.245 363.136 653.734 363.634 Z" style="transform-box: fill-box; transform-origin: 50% 50%;" transform="matrix(-1, 0, 0, -1, -0.000094, -0.000032)"/>
  <path d="M 695.93 30.845 C 695.93 30.845 696.32 32.315 695.27 32.353 C 694.222 32.392 693.803 31.693 694.088 30.981 C 694.373 30.269 695.15 30.086 695.93 30.845 Z" style="transform-box: fill-box; transform-origin: 50% 50%;" transform="matrix(-1, 0, 0, -1, -0.000006, -0.000015)"/>
  <path d="M 766.988 686.088 C 766.89 686.324 766.158 687.952 764.968 687.118 C 763.686 686.221 763.765 685.08 764.692 684.556 C 765.62 684.032 766.697 684.528 767 686.059 L 766.988 686.088 Z" style="transform-box: fill-box; transform-origin: 50% 50%;" transform="matrix(-1, 0, 0, -1, 0.000012, -0.00014)"/>
  <path d="M 796.93 656.845 C 796.93 656.845 797.32 658.315 796.27 658.353 C 795.222 658.392 794.803 657.693 795.088 656.981 C 795.373 656.269 796.15 656.086 796.93 656.845 Z" style="transform-box: fill-box; transform-origin: 50% 50%;" transform="matrix(-1, 0, 0, -1, 0.000085, 0.000097)"/>
  <path d="M 804.929 656.845 C 804.929 656.845 805.319 658.315 804.269 658.353 C 803.221 658.392 802.802 657.693 803.087 656.981 C 803.372 656.269 804.149 656.085 804.929 656.845 Z" style="transform-box: fill-box; transform-origin: 50% 50%;" transform="matrix(-1, 0, 0, -1, -0.000088, -0.000046)"/>
  <path d="M 846.958 161.928 C 846.958 161.928 847.264 163.407 846.214 163.353 L 846.214 163.354 C 845.166 163.301 844.787 162.576 845.112 161.901 C 845.435 161.226 846.221 161.113 846.958 161.928 Z" style="transform-box: fill-box; transform-origin: 50% 50%;" transform="matrix(-1, 0, 0, -1, -0.000068, 0.000025)"/>
  <path d="M 863.814 848.338 C 863.047 848.219 862.706 847.509 863.306 846.589 C 863.306 846.589 864.692 845.893 864.943 846.897 C 865.194 847.901 864.582 848.458 863.814 848.338 Z" style="transform-box: fill-box; transform-origin: 50% 50%;" transform="matrix(-1, 0, 0, -1, 0.00002, -0.000146)"/>
  <path d="M 91.824 401.356 C 90.251 401.435 89.683 402.522 90.169 403.535 L 90.168 403.536 C 90.654 404.548 91.833 404.717 92.938 403.496 C 92.938 403.496 93.396 401.276 91.824 401.356 Z" style="transform-box: fill-box; transform-origin: 50% 50%;" transform="matrix(-1, 0, 0, -1, 0.000019, -0.000009)"/>
  <path d="M 360.977 353.431 C 360.977 353.431 361.275 351.213 359.715 351.361 C 358.154 351.51 357.665 352.611 358.222 353.594 C 358.777 354.577 359.964 354.691 360.977 353.431 Z" style="transform-box: fill-box; transform-origin: 50% 50%;" transform="matrix(-1, 0, 0, -1, 0.000034, 0.000045)"/>
  <path d="M 547.247 59.654 C 546.775 60.166 546.964 60.93 547.945 61.354 C 547.945 61.354 549.348 61.17 548.918 60.216 C 548.489 59.262 547.718 59.14 547.247 59.654 Z" style="transform-box: fill-box; transform-origin: 50% 50%;" transform="matrix(-1, 0, 0, -1, 0.000058, 0.000015)"/>
  <path d="M 606.678 396.112 C 607.213 395.644 607.108 394.868 606.162 394.354 C 606.162 394.354 604.721 394.407 605.048 395.397 C 605.376 396.386 606.143 396.579 606.678 396.112 Z" style="transform-box: fill-box; transform-origin: 50% 50%;" transform="matrix(-1, 0, 0, -1, -0.000077, -0.000013)"/>
  <path d="M 609.517 403.112 C 610.32 402.644 610.161 401.867 608.743 401.354 C 608.743 401.354 606.581 401.407 607.073 402.397 C 607.564 403.386 608.715 403.579 609.517 403.112 Z" style="transform-box: fill-box; transform-origin: 50% 50%;" transform="matrix(-1, 0, 0, -1, -0.000045, 0.000013)"/>
  <path d="M 630.084 416.354 L 630.052 416.358 C 629.842 416.386 628.706 416.582 629.072 417.461 C 629.474 418.427 630.245 418.572 630.734 418.074 C 631.223 417.577 631.056 416.808 630.084 416.354 Z" style="transform-box: fill-box; transform-origin: 50% 50%;" transform="matrix(-1, 0, 0, -1, 0.000071, -0.000016)"/>
  <path d="M 638.304 122.003 C 637.706 120.624 638.046 119.559 638.814 119.379 C 639.581 119.199 640.194 120.034 639.942 121.54 C 639.691 123.046 638.304 122.003 638.304 122.003 Z" style="transform-box: fill-box; transform-origin: 50% 50%;" transform="matrix(-1, 0, 0, -1, -0.000034, 0.000012)"/>
  <path d="M 755.223 6.342 C 754.666 5.032 755.155 3.562 756.716 3.364 C 758.276 3.167 757.978 6.125 757.978 6.125 C 756.965 7.805 755.778 7.652 755.223 6.342 Z" style="transform-box: fill-box; transform-origin: 50% 50%;" transform="matrix(-1, 0, 0, -1, -0.000056, -0.000011)"/>
  <path d="M 881.305 295.119 C 880.705 294.2 881.046 293.489 881.813 293.37 C 882.581 293.25 883.193 293.807 882.942 294.811 C 882.691 295.815 881.305 295.119 881.305 295.119 Z" style="transform-box: fill-box; transform-origin: 50% 50%;" transform="matrix(-1, 0, 0, -1, -0.000006, 0.000069)"/>
  <path d="M 318.75 2.563 C 318.841 3.588 319.535 3.909 320.158 3.543 C 320.779 3.176 320.855 2.398 320.061 1.733 C 320.061 1.733 318.661 1.538 318.75 2.563 Z" style="transform-box: fill-box; transform-origin: 50% 50%;" transform="matrix(-1, 0, 0, -1, 0.000033, 0.000009)"/>
  <path d="M 119.047 746.199 C 117.758 745.425 117.415 744.361 117.935 743.768 C 118.455 743.175 119.439 743.498 120.11 744.87 C 120.782 746.241 119.047 746.199 119.047 746.199 Z" style="transform-box: fill-box; transform-origin: 50% 50%;" transform="matrix(-1, 0, 0, -1, 0.000004, -0.000108)"/>
  <path d="M 417.438 745.651 C 416.415 745.252 416.279 744.475 416.834 743.933 C 417.389 743.388 418.21 743.485 418.59 744.448 C 418.97 745.411 417.438 745.651 417.438 745.651 Z" style="transform-box: fill-box; transform-origin: 50% 50%;" transform="matrix(-1, 0, 0, -1, -0.000051, -0.000092)"/>
  <path d="M 549.177 2.324 C 549.411 1.301 550.195 1.077 550.809 1.536 C 551.422 1.996 551.398 2.794 550.463 3.352 C 550.463 3.352 548.943 3.346 549.177 2.324 Z" style="transform-box: fill-box; transform-origin: 50% 50%;" transform="matrix(-1, 0, 0, -1, -0.000021, -0.000002)"/>
  <path d="M 651.268 278.147 C 651.502 277.124 652.286 276.9 652.9 277.36 C 653.514 277.819 653.489 278.617 652.554 279.175 C 652.554 279.175 651.034 279.17 651.268 278.147 Z" style="transform-box: fill-box; transform-origin: 50% 50%;" transform="matrix(-1, 0, 0, -1, -0.000027, 0.000028)"/>
  <path d="M 602.287 470.115 C 603.211 469.635 604.242 470.209 604.479 471.798 C 604.479 471.798 603.673 473.758 602.458 472.759 C 601.242 471.758 601.363 470.594 602.287 470.115 Z" style="transform-box: fill-box; transform-origin: 50% 50%;" transform="matrix(-1, 0, 0, -1, 0.000052, 0.000045)"/>
  <path d="M 579.106 833.812 C 579.891 833.147 580.61 833.407 580.796 834.103 C 580.981 834.8 580.487 835.409 579.455 835.324 C 579.455 835.324 578.322 834.478 579.106 833.812 Z" style="transform-box: fill-box; transform-origin: 50% 50%;" transform="matrix(-1, 0, 0, -1, 0.000028, -0.000031)"/>
  <path d="M 207.541 634.356 C 205.443 634.317 204.605 635.016 205.175 635.728 C 205.744 636.44 207.299 636.624 208.861 635.864 C 208.861 635.864 209.637 634.394 207.541 634.356 Z" style="transform-box: fill-box; transform-origin: 50% 50%;" transform="matrix(-1, 0, 0, -1, 0.000006, -0.000048)"/>
  <path d="M 767.905 164.355 C 766.331 164.316 765.704 165.015 766.131 165.727 C 766.558 166.439 767.724 166.623 768.895 165.863 C 768.895 165.863 769.477 164.393 767.905 164.355 Z" style="transform-box: fill-box; transform-origin: 50% 50%;" transform="matrix(-1, 0, 0, -1, 0.000005, 0.000004)"/>
</svg>