<?xml version="1.0" encoding="UTF-8"?>
<svg version="1.1" xmlns="http://www.w3.org/2000/svg" width="512" height="512">
<path d="M0 0 C168.96 0 337.92 0 512 0 C512 168.96 512 337.92 512 512 C343.04 512 174.08 512 0 512 C0 343.04 0 174.08 0 0 Z " fill="#111111" transform="translate(0,0)"/>
<path d="M0 0 C2.02237584 0.87912244 3.98098652 1.83040297 5.94140625 2.83984375 C6.62074219 3.17371094 7.30007813 3.50757812 8 3.8515625 C9.65411899 4.66697327 11.29882132 5.50144103 12.94140625 6.33984375 C12.90080078 6.952229 12.86019531 7.56461426 12.81835938 8.19555664 C12.56756889 14.88948734 13.87669878 19.66107398 16.44140625 25.77734375 C19.56036415 33.77745557 20.60172028 40.59793852 20.03320312 49.15991211 C19.73661459 53.94762391 20.1851237 56.4207545 22.94140625 60.33984375 C22.68802964 63.0636423 22.15910865 64.90443895 20.94140625 67.33984375 C20.89085205 70.06752368 20.89890065 72.76994473 20.94921875 75.49609375 C20.96675771 77.17577497 20.98366376 78.8554629 21 80.53515625 C21.03076394 83.17694829 21.06602663 85.81840117 21.11279297 88.45996094 C21.4747618 110.03981043 21.4747618 110.03981043 15.94140625 118.33984375 C12.46215833 118.96610838 10.04037528 118.92679312 6.87890625 117.23828125 C-1.31954093 111.43104783 -4.46302103 105.12266256 -6.68359375 95.52734375 C-9.34313015 85.23844842 -13.74841184 77.16326788 -19.67578125 68.41796875 C-21.03074549 66.38169481 -22.30387494 64.31408484 -23.55859375 62.21484375 C-24.145802 61.24695923 -24.145802 61.24695923 -24.74487305 60.25952148 C-25.79487105 58.52803768 -26.84282821 56.79531674 -27.890625 55.0625 C-30.39642669 51.91557428 -32.30134334 50.7255977 -36.05859375 49.33984375 C-38.74154738 49.02461286 -38.74154738 49.02461286 -41.55859375 49.08984375 C-48.11570774 48.76797628 -53.63395857 46.93387713 -59.80859375 44.77734375 C-80.86109118 37.6285537 -96.6394254 42.94230161 -116.21484375 52.125 C-119.14053637 53.4921193 -122.05029283 54.74609852 -125.08984375 55.8359375 C-131.46506136 58.16863615 -131.46506136 58.16863615 -135.69921875 63.19921875 C-136.7572164 66.25400071 -137.49367341 69.16002702 -138.05859375 72.33984375 C-138.24164063 73.10167969 -138.4246875 73.86351562 -138.61328125 74.6484375 C-140.87184971 88.29890828 -139.32333889 100.43991744 -132.25390625 112.390625 C-125.04119342 122.08030149 -109.31819104 132.3407628 -97.54272461 134.99951172 C-92.41377679 135.70219017 -87.22888959 135.59380438 -82.0602417 135.63232422 C-70.18950176 135.74745485 -60.0428239 136.60029255 -49.05859375 141.33984375 C-45.41864274 142.24070376 -42.1162655 142.41906982 -38.375 142.33984375 C-25.97486256 142.286494 -16.71612663 142.31272467 -6.82421875 150.19921875 C-4.1975186 152.23231435 -2.40875186 153.12577119 0.75390625 153.96484375 C11.32249867 156.92561825 18.6172109 166.84543419 24.50390625 175.52734375 C26.5034847 178.46842775 28.30040161 180.86687789 31.12890625 183.02734375 C36.63996247 187.55865664 38.30803064 192.6096052 39.3515625 199.421875 C39.83977966 201.72870875 39.83977966 201.72870875 42.94140625 203.33984375 C43.32958984 205.90820313 43.32958984 205.90820313 43.33984375 209.18359375 C43.34564453 210.39901855 43.35144531 211.61444336 43.35742188 212.86669922 C43.34388672 214.17783691 43.33035156 215.48897461 43.31640625 216.83984375 C43.31241821 217.83494965 43.31241821 217.83494965 43.30834961 218.85015869 C43.2444528 232.46796147 41.88387656 245.86309497 39.94140625 259.33984375 C39.18085938 259.01628906 38.4203125 258.69273437 37.63671875 258.359375 C34.49444593 257.17077615 32.2758989 256.9773989 28.94140625 257.33984375 C26.89689606 258.38358397 26.89689606 258.38358397 25.94140625 260.33984375 C26.17184489 262.99450424 26.17184489 262.99450424 26.94140625 265.33984375 C29.91140625 265.99984375 32.88140625 266.65984375 35.94140625 267.33984375 C35.70491086 276.5631639 26.92730734 283.52751394 21.0859375 289.90625 C18.60116559 292.72594562 16.3859832 295.67038892 14.23046875 298.74609375 C12.94140625 300.33984375 12.94140625 300.33984375 9.94140625 302.33984375 C5.80970848 302.61529027 1.99860321 302.11264317 -2.05859375 301.33984375 C-3.20674372 303.63614369 -3.36629184 305.41682461 -3.62109375 307.96484375 C-3.70488281 308.78210938 -3.78867187 309.599375 -3.875 310.44140625 C-3.93558594 311.06789063 -3.99617187 311.694375 -4.05859375 312.33984375 C-14.86548843 316.55999405 -25.80521089 320.30470911 -36.82324219 323.93554688 C-44.73975865 326.5485942 -52.61823584 329.2482373 -60.44042969 332.13256836 C-80.10237545 339.20575621 -97.07301908 336.84868334 -116.47070312 330.21191406 C-119.99512245 329.02425125 -123.54414398 327.98359527 -127.12109375 326.96484375 C-128.14332031 326.66835938 -129.16554688 326.371875 -130.21875 326.06640625 C-139.35602661 323.72867111 -150.07679733 322.86923905 -159.05859375 326.33984375 C-160.62350368 327.76228954 -160.62350368 327.76228954 -161.80859375 329.46484375 C-164.05859375 332.33984375 -164.05859375 332.33984375 -166.890625 332.69921875 C-173.22771306 331.98033823 -177.97052412 327.67753081 -182.1171875 323.03515625 C-186.40687318 317.26022456 -189.01692661 311.21126111 -191.05859375 304.33984375 C-191.23729004 303.78127686 -191.41598633 303.22270996 -191.60009766 302.6472168 C-192.24528896 299.40030356 -192.15024134 296.28542109 -192.12109375 292.9765625 C-192.11730713 292.26635452 -192.11352051 291.55614655 -192.10961914 290.82441711 C-192.09334942 287.79864316 -192.06530064 284.77300664 -192.03808594 281.74731445 C-192.01987517 279.5320703 -192.00785747 277.31684883 -191.99609375 275.1015625 C-191.98779541 274.428405 -191.97949707 273.7552475 -191.97094727 273.06169128 C-191.94882662 268.72729323 -192.39223625 264.61762668 -193.05859375 260.33984375 C-193.14689419 257.96612006 -193.18881432 255.59020348 -193.18359375 253.21484375 C-193.18617188 252.03664063 -193.18875 250.8584375 -193.19140625 249.64453125 C-193.07427512 246.73003303 -192.66603138 244.1792615 -192.05859375 241.33984375 C-191.94851005 239.82171271 -191.88432905 238.29940324 -191.87109375 236.77734375 C-191.85691406 236.03355469 -191.84273437 235.28976562 -191.828125 234.5234375 C-192.08768046 232.06425954 -192.9038449 230.50555949 -194.05859375 228.33984375 C-194.42763797 224.55714053 -194.23835341 223.60948324 -192.05859375 220.33984375 C-191.7245488 218.02047145 -191.7245488 218.02047145 -191.71484375 215.4453125 C-191.67037109 214.01155273 -191.67037109 214.01155273 -191.625 212.54882812 C-191.59212891 211.05319336 -191.59212891 211.05319336 -191.55859375 209.52734375 C-191.29448189 197.65007808 -191.29448189 197.65007808 -189.05859375 192.33984375 C-186.55859375 191.40234375 -186.55859375 191.40234375 -183.05859375 191.33984375 C-171.1462402 198.24144541 -165.21216695 214.87912414 -161.05859375 227.33984375 C-160.93077589 230.01379339 -161.01467504 232.66080232 -161.05859375 235.33984375 C-162.04859375 235.66984375 -163.03859375 235.99984375 -164.05859375 236.33984375 C-163.56101563 237.13648438 -163.0634375 237.933125 -162.55078125 238.75390625 C-160.38459362 243.95956135 -160.97328328 248.63355081 -161.3515625 254.17578125 C-161.58657198 260.55169065 -160.00646182 264.34925749 -156.05859375 269.33984375 C-153.36626199 272.21785356 -152.35534435 272.32992106 -148.3203125 272.46484375 C-143.79461666 272.99225331 -142.02435627 274.89585515 -139.24267578 278.35644531 C-138.72817871 279.0315918 -138.21368164 279.70673828 -137.68359375 280.40234375 C-136.55395739 281.77820376 -135.41852965 283.14932935 -134.27734375 284.515625 C-133.72820312 285.17643066 -133.1790625 285.83723633 -132.61328125 286.51806641 C-124.94188097 295.50738627 -117.57388848 297.81289041 -106.05859375 299.33984375 C-104.22748047 299.64341797 -104.22748047 299.64341797 -102.359375 299.953125 C-79.81258205 303.47531263 -60.27259624 301.46191321 -41.41015625 287.80078125 C-40.29251353 286.98108908 -39.1753329 286.16076651 -38.05859375 285.33984375 C-35.7300027 283.64572465 -33.39567884 281.95972154 -31.05859375 280.27734375 C-30.47843506 279.85767334 -29.89827637 279.43800293 -29.30053711 279.00561523 C-25.385755 276.2026465 -21.38422823 273.67652794 -17.24609375 271.21484375 C-8.45949067 265.89157327 -1.87488101 259.77257635 3.94140625 251.33984375 C4.72515625 250.37046875 5.50890625 249.40109375 6.31640625 248.40234375 C9.06874207 243.21524931 8.21528686 238.36052194 7.4453125 232.6796875 C6.71742779 227.03578146 6.63112464 221.3584015 6.51171875 215.67382812 C6.25997581 208.80858843 5.25328385 204.05829293 0.67578125 198.67578125 C-2.31710018 196.1190054 -5.4568783 194.00640965 -8.80859375 191.96484375 C-13.03546516 189.34092696 -16.99531076 186.67889656 -20.80859375 183.46484375 C-28.55345893 177.37052361 -36.93060294 176.95017312 -46.46264648 176.80517578 C-53.14335626 176.62807733 -58.41385414 175.10300349 -64.05859375 171.33984375 C-67.01676559 171.64169802 -69.39297033 172.00703204 -72.05859375 173.33984375 C-77.69414179 173.7231178 -82.15154324 172.66281527 -87.43359375 170.96484375 C-88.94602049 170.500664 -90.4590367 170.03840027 -91.97265625 169.578125 C-92.68583008 169.35979004 -93.39900391 169.14145508 -94.13378906 168.91650391 C-98.74145122 167.53607544 -103.31925451 166.538817 -108.09765625 165.9921875 C-116.36893603 164.99459755 -121.98486198 162.62155953 -129.05859375 158.33984375 C-131.56236074 156.91197333 -134.0876551 155.52675475 -136.62109375 154.15234375 C-137.26224121 153.79785156 -137.90338867 153.44335938 -138.56396484 153.078125 C-142.23428539 151.10606864 -145.46855255 149.91830594 -149.55859375 149.21484375 C-151.9296875 148.6328125 -151.9296875 148.6328125 -154.05859375 147.33984375 C-155.7808438 144.47428183 -157.13790712 141.66281798 -158.44287109 138.59619141 C-160.25670762 134.47907039 -161.77006988 132.31416951 -165.68359375 130.08984375 C-176.12505304 124.1106973 -178.8933263 107.26869467 -182.05859375 96.33984375 C-183.06738009 91.87663774 -183.31125681 87.52840753 -183.37109375 82.96484375 C-183.40009766 82.23523438 -183.42910156 81.505625 -183.45898438 80.75390625 C-183.55528179 72.4575134 -179.36689984 67.38541457 -174.05859375 61.33984375 C-175.37859375 60.67984375 -176.69859375 60.01984375 -178.05859375 59.33984375 C-176.58942914 47.06694425 -166.68905225 37.45592892 -157.40527344 30.01464844 C-155.16045533 28.28617722 -152.90095738 26.58234957 -150.6081543 24.91796875 C-147.32168202 22.49043301 -145.03707363 20.13904268 -142.74609375 16.77734375 C-140.334465 13.72342191 -139.32597095 13.37376052 -135.36328125 12.87109375 C-133.25391026 12.78307048 -131.20196424 12.77236546 -129.09448242 12.90209961 C-126.90323651 12.96654015 -125.19098903 12.88024444 -123.05859375 12.33984375 C-121.37022111 10.75893302 -121.37022111 10.75893302 -119.72241211 8.84814453 C-114.03208526 3.69478233 -107.68727708 4.41987628 -100.40234375 4.5859375 C-98.97238432 4.59394219 -97.54240645 4.59910105 -96.11242676 4.60157776 C-93.11955467 4.61378022 -90.12816042 4.64858419 -87.13574219 4.7019043 C-83.34838878 4.7692651 -79.56208276 4.79866748 -75.77419281 4.81289577 C-72.10844447 4.82823608 -68.44293857 4.86246936 -64.77734375 4.8984375 C-64.10128586 4.90371397 -63.42522797 4.90899044 -62.72868347 4.9144268 C-37.42161699 5.15833213 -37.42161699 5.15833213 -31.05859375 8.33984375 C-26.63004114 8.93317193 -22.46977404 9.1116663 -18.05859375 8.33984375 C-15.26898045 6.03828434 -13.82481794 3.44550933 -12.05859375 0.33984375 C-8.30088492 -1.53901066 -3.93182521 -1.26086994 0 0 Z " fill="#96CD9B" transform="translate(334.05859375,93.66015625)"/>
<path d="M0 0 C4.88107833 1.97320188 7.78723168 5.5492365 10.10327148 10.22949219 C11.1961221 13.60593346 11.20931059 16.40554578 11.16015625 19.953125 C11.15495468 20.61278259 11.14975311 21.27244019 11.14439392 21.9520874 C11.12668241 24.05162249 11.09558146 26.15065535 11.0625 28.25 C10.85488229 39.61694028 10.85488229 39.61694028 11.76635742 50.93408203 C12.21290976 54.88259391 12.14388431 58.84364782 12.125 62.8125 C12.13080078 64.06063477 12.13080078 64.06063477 12.13671875 65.33398438 C12.13542969 66.13771484 12.13414062 66.94144531 12.1328125 67.76953125 C12.13168457 68.48729736 12.13055664 69.20506348 12.12939453 69.94458008 C11.99530039 72.07465289 11.53459252 73.93855717 11 76 C10.87929731 78.31019336 10.824637 80.6241874 10.8125 82.9375 C10.79832031 84.14277344 10.78414063 85.34804687 10.76953125 86.58984375 C10.85464278 90.12805184 11.39746343 93.48470783 12.0078125 96.96875 C13.28743257 104.84731783 13.1873227 112.61484757 13.0625 120.5625 C13.03473244 122.71653845 13.0100942 124.87050687 12.99131775 127.02464294 C12.97367692 128.95473427 12.94624539 130.8847289 12.91821289 132.81469727 C12.98636557 135.46898997 13.26816407 137.48283711 14 140 C14.09435979 141.99820728 14.12990301 143.99957203 14.125 146 C14.12886719 147.546875 14.12886719 147.546875 14.1328125 149.125 C14.02365047 152.30996262 13.78883391 155.41976285 13.4921875 158.58984375 C12.90898151 165.25876787 12.92341944 171.87318795 13 178.5625 C13.02546277 180.85542201 13.04651157 183.1483986 13.0625 185.44140625 C13.07410156 186.43857666 13.08570313 187.43574707 13.09765625 188.46313477 C13 191 13 191 12 194 C11.90356673 196.20662023 11.87018797 198.41627886 11.875 200.625 C11.87242187 201.79289063 11.86984375 202.96078125 11.8671875 204.1640625 C11.93422448 207.97873785 11.93422448 207.97873785 12.5 211.64306641 C13.36263173 219.23944902 13.14349957 226.91227959 13.1328125 234.546875 C13.13348714 236.24839288 13.1344585 237.94991067 13.13571167 239.65142822 C13.13717949 243.20171026 13.13506257 246.75196701 13.13037109 250.30224609 C13.12465689 254.84718193 13.12796928 259.39205893 13.13394356 263.93699265 C13.13755908 267.44401492 13.13640632 270.95102326 13.13381577 274.45804596 C13.13315015 276.13414772 13.13396214 277.81025075 13.13629532 279.48635101 C13.13884002 281.82654676 13.1349564 284.16664727 13.12939453 286.50683594 C13.13141876 287.19472702 13.13344299 287.8826181 13.13552856 288.59135437 C13.11968323 292.19755509 12.78346545 295.48533211 12 299 C11.90822698 301.39839273 11.86933638 303.79907181 11.8671875 306.19921875 C11.86623077 306.87547806 11.86527405 307.55173737 11.86428833 308.24848938 C11.86361094 309.66964817 11.86543434 311.09081013 11.86962891 312.51196289 C11.87500861 314.69098794 11.86965623 316.86980922 11.86328125 319.04882812 C11.86394162 320.43229212 11.86522193 321.81575599 11.8671875 323.19921875 C11.86887939 325.08386841 11.86887939 325.08386841 11.87060547 327.0065918 C11.79277071 329.92568265 11.79277071 329.92568265 13 332 C13.09538858 333.43892769 13.13073478 334.8821343 13.1328125 336.32421875 C13.13474609 337.62069336 13.13474609 337.62069336 13.13671875 338.94335938 C13.13285156 339.84892578 13.12898438 340.75449219 13.125 341.6875 C13.13080078 343.0168457 13.13080078 343.0168457 13.13671875 344.37304688 C13.13085481 348.33413647 13.05195018 352.1653779 12.4296875 356.08203125 C12.21699219 357.52642578 12.21699219 357.52642578 12 359 C12.33 359.33 12.66 359.66 13 360 C13.4375 362.25 13.4375 362.25 13 365 C6.52762988 371.3252708 0.96723669 372.88677834 -7.875 373.375 C-13.36488114 373.27593448 -17.06499966 371.86519989 -21 368 C-26.13334355 361.16803182 -26.99322253 354.32858479 -26 346 C-25.30880306 342.68146924 -24.50805991 339.40681946 -23.67578125 336.12109375 C-22.32485722 329.88185504 -22.0996945 324.69824728 -25 319 C-25.42733907 312.58991397 -24.5766337 306.44748775 -23.71850586 300.10791016 C-22.03579977 289.82110813 -22.03579977 289.82110813 -24 280 C-24.09824334 277.39691735 -24.13630443 274.82061476 -24.12939453 272.21728516 C-24.13114685 271.41387192 -24.13289917 270.61045868 -24.13470459 269.78269958 C-24.13911747 267.11813212 -24.13618654 264.45363068 -24.1328125 261.7890625 C-24.13348583 259.94062284 -24.13445611 258.09218326 -24.13571167 256.2437439 C-24.13718799 252.36496133 -24.13503669 248.48620177 -24.13037109 244.60742188 C-24.12468181 239.63508581 -24.12794815 234.66280381 -24.13394356 229.69046974 C-24.13755774 225.87122185 -24.13640649 222.05198677 -24.13381577 218.23273849 C-24.13314846 216.39950937 -24.13396808 214.56627907 -24.13629532 212.7330513 C-24.13883498 210.16917088 -24.13496229 207.60537782 -24.12939453 205.04150391 C-24.13141876 204.2829158 -24.13344299 203.5243277 -24.13552856 202.74275208 C-24.12179844 199.32956679 -23.95564504 196.27823244 -23 193 C-22.94037871 190.57884183 -22.93923025 188.15603647 -22.97265625 185.734375 C-22.98533158 184.27083595 -22.99769028 182.80729413 -23.00976562 181.34375 C-23.03424978 179.06696625 -23.06189676 176.7903333 -23.09594727 174.51367188 C-23.22848613 165.03766468 -22.76827337 155.97263535 -21.45629883 146.58496094 C-20.86619327 141.94873304 -20.73672164 137.41635187 -20.8125 132.75 C-20.81314453 131.94949219 -20.81378906 131.14898437 -20.81445312 130.32421875 C-20.81208148 126.16295613 -20.81208148 126.16295613 -21.50219727 122.07885742 C-22.09934904 119.58511177 -22.12963743 117.31777559 -22.1328125 114.75390625 C-22.13410156 113.75166016 -22.13539063 112.74941406 -22.13671875 111.71679688 C-22.13285156 110.67587891 -22.12898438 109.63496094 -22.125 108.5625 C-22.12886719 107.52544922 -22.13273437 106.48839844 -22.13671875 105.41992188 C-22.13478516 103.91461914 -22.13478516 103.91461914 -22.1328125 102.37890625 C-22.13112061 101.01100952 -22.13112061 101.01100952 -22.12939453 99.61547852 C-21.99906619 96.98112477 -21.5481245 94.57578889 -21 92 C-20.27703396 81.47551072 -21.40903273 71.85687688 -23.5637207 61.5546875 C-26.92450186 45.1031832 -26.92450186 45.1031832 -23.96484375 38.79296875 C-22.48068159 34.49670986 -23.0128916 30.31172086 -23.1875 25.8125 C-23.34096218 17.91697215 -23.2389282 11.37782564 -18 5 C-12.31423864 -0.42130734 -7.62713267 -0.60795985 0 0 Z " fill="#95CD9A" transform="translate(466,70)"/>
<path d="M0 0 C1.54300781 -0.02513672 1.54300781 -0.02513672 3.1171875 -0.05078125 C7.84647408 0.5204183 10.34443186 2.35351629 13.3125 6 C16.76732159 12.31398429 17.49379039 18.18255238 17.125 25.3125 C16.795 25.9725 16.465 26.6325 16.125 27.3125 C15.81626484 33.90490366 15.98123457 40.49609266 16.625 47.0625 C17.11457782 52.25901888 17.23728481 57.40965093 17.25 62.625 C17.25451172 63.37813477 17.25902344 64.13126953 17.26367188 64.90722656 C17.25155252 69.47016312 16.81386228 73.79250365 16.125 78.3125 C15.55052205 86.79709743 16.64040028 94.37928054 18.453125 102.65625 C19.81090193 110.04508261 19.3505563 116.95916218 18.125 124.3125 C17.518417 131.51311656 17.518417 131.51311656 19.125 138.3125 C19.22072667 139.83617959 19.25574062 141.36394272 19.2578125 142.890625 C19.25974609 144.26154297 19.25974609 144.26154297 19.26171875 145.66015625 C19.25785156 146.61792969 19.25398438 147.57570312 19.25 148.5625 C19.25580078 149.97595703 19.25580078 149.97595703 19.26171875 151.41796875 C19.26042969 152.33707031 19.25914063 153.25617188 19.2578125 154.203125 C19.25668457 155.03875977 19.25555664 155.87439453 19.25439453 156.73535156 C19.125 159.3125 19.125 159.3125 18.625 161.99694824 C18.07172618 165.66576422 17.98468931 169.23936482 17.99560547 172.93847656 C17.99385315 173.6774115 17.99210083 174.41634644 17.99029541 175.17767334 C17.98591909 177.60284827 17.98879873 180.02794942 17.9921875 182.453125 C17.99151354 184.14369724 17.99054274 185.83426939 17.98928833 187.52484131 C17.98781733 191.0585625 17.98994778 194.59225833 17.99462891 198.12597656 C18.00034335 202.66120531 17.9970326 207.1963751 17.99105644 211.73160172 C17.9874496 215.21792041 17.98858968 218.70422502 17.99118423 222.19054413 C17.99185226 223.86354326 17.99102941 225.53654367 17.98870468 227.20954132 C17.98617427 229.54109611 17.99002346 231.87255402 17.99560547 234.20410156 C17.99358124 234.89814087 17.99155701 235.59218018 17.98947144 236.30725098 C17.96392565 239.93237363 17.96392565 239.93237363 19.125 243.3125 C19.22452728 245.84459104 19.26387217 248.34332897 19.25 250.875 C19.25580078 251.89303711 19.25580078 251.89303711 19.26171875 252.93164062 C19.25499947 256.49622 19.07840216 259.94907501 18.6171875 263.484375 C17.87201305 269.64302268 18.05764705 275.80689593 18.125 282 C18.15062046 284.37885951 18.17161389 286.75777432 18.1875 289.13671875 C18.19910156 290.17916748 18.21070313 291.22161621 18.22265625 292.2956543 C18.125 295.3125 18.125 295.3125 17.61352539 298.13964844 C16.98470738 302.22366588 17.10796818 306.13378188 17.24609375 310.25390625 C17.26970474 311.09920395 17.29331573 311.94450165 17.31764221 312.81541443 C17.39380128 315.50213443 17.47792292 318.18853308 17.5625 320.875 C17.64172584 323.5650663 17.71933635 326.25517527 17.79664612 328.94529724 C17.84522426 330.61482605 17.89523709 332.28431392 17.94688416 333.95375061 C17.9701326 334.71481613 17.99338104 335.47588165 18.01733398 336.26000977 C18.04994827 337.31770065 18.04994827 337.31770065 18.08322144 338.39675903 C18.11886025 340.03096397 18.10387526 341.66614263 18.07836914 343.30053711 C17.89328558 345.3109632 17.89328558 345.3109632 19.125 346.3125 C19.03339172 348.37811892 18.87595479 350.44095692 18.6875 352.5 C18.38123149 355.89221453 18.12143087 359.16366735 18.203125 362.5703125 C18.125 365.3125 18.125 365.3125 16.3125 368 C9.78473771 372.73582755 1.11282575 374.43798621 -6.875 373.3125 C-12.7714252 371.27142974 -15.6031355 367.70451991 -19 362.6328125 C-20.30218426 359.17969888 -20.16924317 355.76360606 -20.125 352.125 C-20.12113281 351.35905518 -20.11726563 350.59311035 -20.11328125 349.80395508 C-20.04216216 345.15898961 -19.55584351 340.98994198 -18.328125 336.5 C-17.05061883 330.33272882 -16.87189382 323.89640055 -19.875 318.3125 C-20.23043245 313.42530387 -19.70438938 309.07230681 -18.875 304.25 C-17.5950124 296.4702172 -16.75204614 287.69852955 -18.37719727 279.90380859 C-18.86236322 277.37828065 -19.00419295 275.10635708 -19.0078125 272.5390625 C-19.00974609 271.63986084 -19.01167969 270.74065918 -19.01367188 269.81420898 C-19.00916016 268.86489502 -19.00464844 267.91558105 -19 266.9375 C-18.99806641 265.95015869 -18.99613281 264.96281738 -18.99414062 263.94555664 C-18.95535284 257.33385582 -18.61361221 250.82128004 -18.1015625 244.23046875 C-17.4581698 233.10421224 -17.41119421 221.82044615 -18.6484375 210.73828125 C-19.6527393 199.98532576 -19.6527393 199.98532576 -18.36621094 195.56396484 C-17.72339018 192.61759653 -17.81869366 189.89397796 -17.8828125 186.87890625 C-17.90150391 185.59999512 -17.92019531 184.32108398 -17.93945312 183.00341797 C-17.94984619 182.32937927 -17.96023926 181.65534058 -17.97094727 180.96087646 C-18.12566883 169.85245309 -17.77447547 159.12967996 -15.95288086 148.14111328 C-14.30484031 138.19683461 -14.58766564 129.24219349 -16.42578125 119.34765625 C-17.46507034 112.32567695 -17.12552343 105.22501682 -16.375 98.1875 C-15.07731848 84.76521203 -15.65678284 72.1684118 -18.4519043 58.96166992 C-21.2416901 45.59679405 -21.2416901 45.59679405 -18.8671875 39.890625 C-16.98747148 35.00632354 -17.88587325 29.48682887 -18.12890625 24.32421875 C-18.32345731 16.37051382 -16.58990013 10.42470259 -11.3125 4.375 C-7.31479046 0.9923227 -5.19372499 0.0194279 0 0 Z " fill="#95CD9A" transform="translate(52.875,69.6875)"/>
<path d="M0 0 C0.33 0 0.66 0 1 0 C1 13.86 1 27.72 1 42 C-12.86 42 -26.72 42 -41 42 C-41 41.67 -41 41.34 -41 41 C-40.18917969 40.79246094 -39.37835938 40.58492188 -38.54296875 40.37109375 C-24.55523711 36.47928017 -13.77873524 29.61055753 -6.1796875 16.97265625 C-3.28759551 11.4329728 -1.17983067 6.13511949 0 0 Z " fill="#000000" transform="translate(511,470)"/>
<path d="M0 0 C13.53 0 27.06 0 41 0 C41 13.86 41 27.72 41 42 C39.30655852 38.61311704 38.10297015 35.43868959 36.875 31.875 C31.79783692 18.56984617 22.45535966 10.28762235 9.890625 4.2578125 C6.6094278 2.83004831 3.48394341 1.79180532 0 1 C0 0.67 0 0.34 0 0 Z " fill="#000000" transform="translate(471,0)"/>
<path d="M0 0 C1.61102614 3.22205228 2.90350921 6.33510084 4.1875 9.6875 C9.97265923 23.59218095 20.28636836 32.26154184 34 38 C36.67965991 38.85897074 39.23156513 39.46760868 42 40 C42 40.33 42 40.66 42 41 C28.14 41 14.28 41 0 41 C0 27.47 0 13.94 0 0 Z " fill="#000000" transform="translate(0,471)"/>
<path d="M0 0 C13.53 0 27.06 0 41 0 C37.77794772 1.61102614 34.66489916 2.90350921 31.3125 4.1875 C17.32964928 10.00518242 8.86955879 20.29186109 3 34 C2.17794005 36.34031422 1.55034658 38.57847506 1 41 C0.67 41 0.34 41 0 41 C0 27.47 0 13.94 0 0 Z " fill="#000000" transform="translate(0,0)"/>
</svg>
